<?xml version="1.0" standalone="no"?>
<!DOCTYPE svg PUBLIC "-//W3C//DTD SVG 20010904//EN"
 "http://www.w3.org/TR/2001/REC-SVG-20010904/DTD/svg10.dtd">
<svg version="1.0" xmlns="http://www.w3.org/2000/svg"
 width="850.000000pt" height="850.000000pt" viewBox="0 0 850.000000 850.000000"
 preserveAspectRatio="xMidYMid meet">
<metadata>
Created by potrace 1.14, written by Peter Selinger 2001-2017
</metadata>
<g transform="translate(0.000000,850.000000) scale(0.100000,-0.100000)"
fill="#000000" stroke="none">
<path d="M2480 6980 c-25 -4 -70 -10 -101 -13 -30 -4 -62 -8 -70 -11 -8 -3
-32 -7 -54 -10 -63 -8 -240 -54 -355 -91 -311 -100 -600 -257 -870 -472 -93
-73 -319 -295 -391 -383 -176 -214 -323 -455 -424 -695 -20 -48 -76 -196 -79
-210 -1 -5 -12 -41 -24 -80 -34 -113 -65 -249 -78 -350 -2 -22 -6 -45 -9 -52
-19 -55 -27 -492 -12 -643 109 -1086 862 -2012 1912 -2352 148 -48 403 -100
563 -115 113 -10 3410 -11 3522 0 220 21 565 102 715 167 11 5 54 23 95 41
314 133 619 338 860 579 126 126 156 159 241 270 125 163 201 284 292 465 148
295 238 606 275 950 14 131 4 606 -13 635 -2 3 -6 30 -10 60 -3 30 -11 75 -17
100 -5 25 -12 56 -14 70 -16 90 -100 352 -151 470 -36 84 -141 289 -175 342
-21 32 -38 63 -38 68 0 6 -4 10 -8 10 -5 0 -13 10 -19 23 -13 27 -153 216
-202 272 -20 22 -94 99 -166 170 -311 310 -676 532 -1101 668 -61 20 -121 38
-135 41 -13 2 -53 11 -89 20 -36 8 -105 22 -155 30 -49 9 -108 19 -130 22 -54
10 -3528 14 -3585 4z m3550 -504 c19 -4 75 -14 123 -22 264 -44 574 -168 817
-326 472 -306 823 -795 959 -1334 50 -198 63 -302 66 -519 2 -206 -9 -341 -42
-485 -9 -41 -17 -77 -18 -80 -17 -81 -64 -224 -110 -335 -31 -74 -109 -230
-117 -233 -4 -2 -8 -8 -8 -14 0 -14 -101 -167 -170 -258 -133 -174 -344 -371
-525 -491 -49 -32 -94 -62 -100 -67 -5 -4 -37 -21 -70 -39 -33 -17 -81 -43
-108 -56 -92 -49 -365 -147 -453 -163 -15 -3 -54 -11 -88 -19 -33 -7 -86 -16
-116 -20 -30 -4 -64 -10 -75 -13 -11 -4 -785 -7 -1720 -8 l-1700 -2 -140 23
c-168 27 -170 28 -265 53 -831 226 -1473 917 -1630 1757 -5 28 -12 64 -15 80
-13 70 -20 191 -20 350 0 204 5 243 50 480 8 40 45 175 55 200 4 11 16 43 25
70 25 72 40 107 101 231 214 435 574 798 1011 1017 202 102 481 191 668 213
33 4 85 10 115 14 73 10 3455 6 3500 -4z"/>
<path d="M3209 5644 c-82 -25 -138 -72 -251 -214 -60 -74 -114 -142 -121 -150
-27 -34 -386 -481 -445 -555 -35 -44 -78 -98 -96 -120 -186 -225 -343 -430
-364 -475 -22 -46 -27 -69 -27 -140 0 -71 4 -94 26 -140 40 -85 68 -111 257
-242 98 -67 204 -140 237 -163 69 -48 634 -437 739 -509 39 -26 85 -56 101
-66 133 -76 312 -56 422 47 22 21 157 184 300 363 142 179 353 442 467 585
114 143 215 269 224 280 10 11 44 54 77 95 33 41 68 84 77 95 9 11 30 36 45
56 57 73 387 484 401 498 7 8 20 24 28 36 14 22 17 22 67 9 29 -7 90 -32 137
-55 120 -59 248 -188 308 -309 62 -125 81 -210 77 -350 -2 -92 -8 -131 -30
-195 -98 -292 -341 -479 -649 -501 -81 -5 -106 -9 -141 -18 -45 -12 -114 -58
-154 -103 -106 -118 -119 -298 -32 -423 83 -117 177 -160 346 -155 511 14 989
325 1220 795 101 204 144 403 140 643 -3 229 -41 391 -137 595 -38 80 -134
231 -180 283 -158 180 -304 294 -483 379 -83 39 -238 95 -290 104 -16 3 -55
10 -85 16 -30 6 -112 13 -181 16 -169 5 -224 -12 -313 -100 -34 -33 -76 -79
-93 -101 -46 -60 -781 -978 -860 -1075 -7 -8 -103 -127 -213 -265 -110 -137
-206 -257 -213 -265 -6 -8 -47 -59 -91 -113 -46 -57 -83 -94 -90 -90 -6 3
-145 98 -309 210 l-297 205 21 29 c11 16 53 69 92 118 40 49 84 104 99 122 70
89 412 517 427 535 10 11 53 65 97 120 43 54 84 105 90 111 7 7 25 39 40 70
23 49 27 71 27 143 1 72 -4 94 -27 142 -59 124 -170 199 -300 204 -40 1 -92
-4 -117 -12z"/>
</g>
</svg>
